<?xml version="1.0" standalone="no" ?>
<!DOCTYPE svg PUBLIC "-//W3C//DTD SVG 1.1//EN" 
"http://www.w3.org/Graphics/SVG/1.1/DTD/svg11.dtd">

<svg width="600px" height="600px" version="1.1" xmlns="http://www.w3.org/2000/svg">

  <!-- <path d="M10 10 C 20 20, 40 20, 50 10" stroke="black" fill="transparent"/>
  <path d="M70 10 C 70 20, 120 20, 120 10" stroke="black" fill="transparent"/>
  <path d="M130 10 C 120 20, 180 20, 170 10" stroke="black" fill="transparent"/>
  <path d="M10 60 C 20 80, 40 80, 50 60" stroke="black" fill="transparent"/>
  <path d="M70 60 C 70 80, 110 80, 110 60" stroke="black" fill="transparent"/>
  <path d="M130 60 C 120 80, 180 80, 170 60" stroke="black" fill="transparent"/>
  <path d="M10 110 C 20 140, 40 140, 50 110" stroke="black" fill="transparent"/>
  <path d="M70 110 C 70 140, 110 140, 110 110" stroke="black" fill="transparent"/>
  <path d="M130 110 C 120 140, 180 140, 170 110" stroke="black" fill="transparent"/>
  <g style='transform:translate(200px,0)'>
    <path d="M10 80 C 40 10, 65 10, 95 80 S 150 150, 180 80" stroke="black" fill="transparent"/>
  </g>
  <g style='transform:translate(400px,0)'>
    <path d="M10 80 Q 95 10 180 80" stroke="black" fill="transparent"/>
  </g>
  <g style='transform:translate(400px,200px)'>
    <path d="M10 80 Q 52.5 10, 95 80 T 180 80" stroke="black" fill="transparent"/>
  </g> -->
  <!-- <path d="M10 315
           L 110 215
           A 30 50 0 0 1 162.55 162.45
           L 172.55 152.45
           A 30 50 -45 0 1 215.1 109.9
           L 315 10" stroke="black" fill="green" stroke-width="2" fill-opacity="0.5"/> -->
  <!-- <path d="M80 80
           A 45 45, 0, 0, 0, 125 125
           L 125 80 Z" fill="green"/>
  <path d="M230 80
           A 45 45, 0, 1, 0, 275 125
           L 275 80 Z" fill="red"/>
  <path d="M80 230
           A 45 45, 0, 0, 1, 125 275
           L 125 230 Z" fill="purple"/>
  <path d="M230 230
           A 45 45, 0, 1, 1, 275 275
           L 275 230 Z" fill="blue" fill-opacity='0.5'/> -->
  <!-- A rx ry x-axis-rotation large-arc-flag sweep-flag x y -->
  <!-- rx,ry表示弧形的x、y轴半轴长，x-axis-rotation表示弧形的旋转，large-arc-flag决定弧线是大于还是小于180度，0表示小角度弧，1表示大角度弧。sweep-flag表示弧线的方向，0表示从起点到终点沿逆时针画弧，1表示从起点到终点沿顺时针画弧，x、y表示弧形的终点 -->
  <!-- <line x1="40" x2="120" y1="20" y2="20" stroke="black" stroke-width="20" stroke-linecap="butt"/>
  <line x1="40" x2="120" y1="60" y2="60" stroke="black" stroke-width="20" stroke-linecap="square"/>
  <line x1="40" x2="120" y1="100" y2="100" stroke="black" stroke-width="20" stroke-linecap="round"/> -->
  <!-- <polyline points="40 60 80 20 120 60" stroke="black" stroke-width="20"
      stroke-linecap="butt" fill="none" stroke-linejoin="miter"/>
  
  <polyline points="40 140 80 100 120 140" stroke="black" stroke-width="20"
      stroke-linecap="round" fill="none" stroke-linejoin="round"/>
  
  <polyline points="40 220 80 180 120 220" stroke="black" stroke-width="20"
      stroke-linecap="square" fill="none" stroke-linejoin="bevel"/> -->
  <path d="M 10 75 Q 50 10 100 75 T 190 75" stroke="black"
    stroke-linecap="round" stroke-dasharray="5,10,5" fill="none"/>
  <path d="M 10 75 L 190 75" stroke="red"
    stroke-linecap="round" stroke-width="1" stroke-dasharray="5,5" fill="none"/>
    <defs>
    <style type="text/css"><![CDATA[
       #MyRect {
         stroke: black;
         fill: red;
       }
    ]]></style>
  </defs>
  <rect x="10" height="180" y="10" width="180" id="MyRect"/>
</svg>