<?xml version="1.0"?>
<!DOCTYPE svg PUBLIC "-//W3C//DTD SVG 1.1//EN"
"http://www.w3.org/Graphics/SVG/1.1/DTD/svg11.dtd">

<svg height="600px" width="100%" version="1.1" xmlns="http://www.w3.org/2000/svg" xmlns:xlink="http://www.w3.org/1999/xlink">
    <!-- <text x="100" y="100">2222</text>-->
    <!-- <g fill="red" transform="skewX(30),skewY(10)">
        <rect x="0" y="0" width="10" height="10" />
        <rect x="20" y="0" width="10" height="10" />
    </g> -->
    <!-- <svg width="100" height="100" viewBox="0 0 50 50">
        <rect width="50" height="50" />
    </svg> -->
    <!-- <defs>
    <clipPath id="cut-off-bottom">
      <rect x="0" y="0" width="200" height="100" />
    </clipPath>
  </defs>

  <circle cx="100" cy="100" r="100" clip-path="url(#cut-off-bottom)" /> -->
  <!-- <defs>
    <linearGradient id="Gradient">
      <stop offset="0" stop-color="white" stop-opacity="0" />
      <stop offset="1" stop-color="white" stop-opacity="1" />
    </linearGradient>
    <mask id="Mask">
      <rect x="0" y="0" width="200" height="200" fill="url(#Gradient)"  />
    </mask>
  </defs>

  <rect x="0" y="0" width="200" height="200" fill="green" />
  <rect x="0" y="0" width="200" height="200" fill="red" mask="url(#Mask)" /> -->
  <!-- <rect x="0" y="0" width="200" height="200" fill="blue" />
  <circle cx="100" cy="100" r="50" stroke="yellow" stroke-width="40" stroke-opacity=".5" fill="red" /> -->
  <!-- <rect x="10" y="10" width="100" height="100">
    <animate attributeType="XML" attributeName="x" from="-100" to="120"
        dur="10s" repeatCount="indefinite"/>
  </rect> -->
  <!-- Draw the outline of the motion path in grey, along
         with 2 small circles at key points -->
    <!-- <path d="M10,110 A120,120 -45 0,1 110 10 A120,120 -45 0,1 10,110"
          stroke="lightgrey" stroke-width="2" 
          fill="none" id="theMotionPath"/>
    <circle cx="10" cy="110" r="3" fill="lightgrey"  />
    <circle cx="110" cy="10" r="3" fill="lightgrey"  />
    <circle cx="1" cy="1" r="5" fill="red">
        <animateMotion dur="6s" repeatCount="indefinite">
           <mpath xlink:href="#theMotionPath"/>
        </animateMotion>
    </circle> -->
    <rect x='10' y='10' width="100" height="100">
        <animate attributeType="XML" attributeName="x" from="100" to="220"
        dur="3s" repeatCount="indefinite"></animate>
        <animateTransform attributeName="transform"
                          attributeType="XML"
                          type="rotate"
                          from="0 60 70"
                          to="360 60 70"
                          dur="3s"
                          repeatCount="indefinite"/>
    </rect>

</svg>