<?xml version="1.0" standalone="no" ?>
<!DOCTYPE svg PUBLIC "-//W3C//DTD SVG 1.1//EN"
"http://www.w3.org/Graphics/SVG/1.1/DTD/svg11.dtd">

<svg width="600px" height="600px" version="1.1" xmlns="http://www.w3.org/2000/svg">

  <!-- <path d="M10 10 C 20 20, 40 20, 50 10" stroke="black" fill="transparent"/>
  <path d="M70 10 C 70 20, 120 20, 120 10" stroke="black" fill="transparent"/>
  <path d="M130 10 C 120 20, 180 20, 170 10" stroke="black" fill="transparent"/>
  <path d="M10 60 C 20 80, 40 80, 50 60" stroke="black" fill="transparent"/>
  <path d="M70 60 C 70 80, 110 80, 110 60" stroke="black" fill="transparent"/>
  <path d="M130 60 C 120 80, 180 80, 170 60" stroke="black" fill="transparent"/>
  <path d="M10 110 C 20 140, 40 140, 50 110" stroke="black" fill="transparent"/>
  <path d="M70 110 C 70 140, 110 140, 110 110" stroke="black" fill="transparent"/>
  <path d="M130 110 C 120 140, 180 140, 170 110" stroke="black" fill="transparent"/>
  <g style='transform:translate(200px,0)'>
    <path d="M10 80 C 40 10, 65 10, 95 80 S 150 150, 180 80" stroke="black" fill="transparent"/>
  </g>
  <g style='transform:translate(400px,0)'>
    <path d="M10 80 Q 95 10 180 80" stroke="black" fill="transparent"/>
  </g>
  <g style='transform:translate(400px,200px)'>
    <path d="M10 80 Q 52.5 10, 95 80 T 180 80" stroke="black" fill="transparent"/>
  </g> -->
  <!-- <path d="M10 315
           L 110 215
           A 30 50 0 0 1 162.55 162.45
           L 172.55 152.45
           A 30 50 -45 0 1 215.1 109.9
           L 315 10" stroke="black" fill="green" stroke-width="2" fill-opacity="0.5"/> -->
  <!-- <path d="M80 80
           A 45 45, 0, 0, 0, 125 125
           L 125 80 Z" fill="green"/>
  <path d="M230 80
           A 45 45, 0, 1, 0, 275 125
           L 275 80 Z" fill="red"/>
  <path d="M80 230
           A 45 45, 0, 0, 1, 125 275
           L 125 230 Z" fill="purple"/>
  <path d="M230 230
           A 45 45, 0, 1, 1, 275 275
           L 275 230 Z" fill="blue" fill-opacity='0.5'/> -->
  <!-- A rx ry x-axis-rotation large-arc-flag sweep-flag x y -->
  <!-- rx,ry表示弧形的x、y轴半轴长，x-axis-rotation表示弧形的旋转，large-arc-flag决定弧线是大于还是小于180度，0表示小角度弧，1表示大角度弧。sweep-flag表示弧线的方向，0表示从起点到终点沿逆时针画弧，1表示从起点到终点沿顺时针画弧，x、y表示弧形的终点 -->
  <!-- <line x1="40" x2="120" y1="20" y2="20" stroke="black" stroke-width="20" stroke-linecap="butt"/>
  <line x1="40" x2="120" y1="60" y2="60" stroke="black" stroke-width="20" stroke-linecap="square"/>
  <line x1="40" x2="120" y1="100" y2="100" stroke="black" stroke-width="20" stroke-linecap="round"/> -->
  <!-- <polyline points="40 60 80 20 120 60" stroke="black" stroke-width="20"
      stroke-linecap="butt" fill="none" stroke-linejoin="miter"/>

  <polyline points="40 140 80 100 120 140" stroke="black" stroke-width="20"
      stroke-linecap="round" fill="none" stroke-linejoin="round"/>

  <polyline points="40 220 80 180 120 220" stroke="black" stroke-width="20"
      stroke-linecap="square" fill="none" stroke-linejoin="bevel"/> -->
  <!-- <path d="M 10 75 Q 50 10 100 75 T 190 75" stroke="black"
    stroke-linecap="round" stroke-dasharray="5,10,5" fill="none"/>
  <path d="M 10 75 L 190 75" stroke="red"
    stroke-linecap="round" stroke-width="1" stroke-dasharray="5,5" fill="none"/>
    <defs>
    <style type="text/css"><![CDATA[
       #MyRect {
         stroke: black;
         fill: red;
       }
    ]]></style>
  </defs>
  <rect x="10" height="180" y="10" width="180" id="MyRect"/> -->
  <!-- <defs>
      <linearGradient id="Gradient1">
        <stop class="stop1" offset="0%"/>
        <stop class="stop2" offset="50%"/>
        <stop class="stop3" offset="100%"/>
      </linearGradient> -->
      <!-- <linearGradient id="Gradient2" x1="0" x2="1" y1="0" y2="1"> -->
        <!-- 从0，0开始变化 -->
        <!-- <stop offset="0%" stop-color="red"/>
        <stop offset="50%" stop-color="black" stop-opacity="0"/>
        <stop offset="100%" stop-color="blue"/>
      </linearGradient> -->
       <!-- <linearGradient id="Gradient2" x1="0" x2="1" y1="0" y2="1"
    xmlns:xlink="http://www.w3.org/1999/xlink" xlink:href="#Gradient1"/> -->
    <!-- 用xlink可引用，避免多次创建 -->
      <!-- <style type="text/css"><![CDATA[
        #rect1 { fill: url(#Gradient1); }
        .stop1 { stop-color: purple; }
        .stop2 { stop-color: black; stop-opacity: 0; }
        .stop3 { stop-color: blue; }
      ]]></style>
  </defs>
 
  <rect id="rect1" x="10" y="10" rx="15" ry="15" width="100" height="100"/>
  <rect x="10" y="120" rx="15" ry="15" width="100" height="100" fill="url(#Gradient2)"/> -->
  <!-- <defs>
      <radialGradient id="RadialGradient1">
        <stop offset="0%" stop-color="red"/>
        <stop offset="50%" stop-color="skyblue"></stop>
        <stop offset="100%" stop-color="blue"/>
      </radialGradient>
      <radialGradient id="RadialGradient2" cx="0.25" cy="0.25" r="0.25">
        <stop offset="0%" stop-color="red"/>
        <stop offset="100%" stop-color="blue"/>
      </radialGradient>
  </defs>
  <rect x="10" y="10" rx="15" ry="15" width="100" height="100" fill="url(#RadialGradient1)"/> 
  <rect x="10" y="120" rx="15" ry="15" width="100" height="100" fill="url(#RadialGradient2)"/>  -->
  <!-- <defs>
      <radialGradient id="Gradient"
            cx="0.5" cy="0.5" r="0.5" fx="25%" fy="0.25">//按百分比计算
        <stop offset="0%" stop-color="red"/>
        <stop offset="25%" stop-color="pink"></stop>
        <stop offset="100%" stop-color="blue"/>
      </radialGradient>
  </defs>
 
  <rect x="10" y="10" rx="15" ry="15" width="100" height="100"
        fill="url(#Gradient)" stroke="black" stroke-width="2"/>

  <circle cx="60" cy="60" r="50" fill="transparent" stroke="white" stroke-width="2"/>
  <circle cx="35" cy="35" r="2" fill="white" stroke="white"/>
  <circle cx="60" cy="60" r="2" fill="white" stroke="white"/>
  <text x="38" y="40" fill="white" font-family="sans-serif" font-size="10pt">(fx,fy)</text>
  <text x="63" y="63" fill="white" font-family="sans-serif" font-size="10pt">(cx,cy)</text> -->
  <!-- <defs>
      <radialGradient id="GradientPad"
            cx="0.5" cy="0.5" r="0.4" fx="0.75" fy="0.75"
            spreadMethod="pad">
        <stop offset="0%" stop-color="red"/>
        <stop offset="100%" stop-color="blue"/>
      </radialGradient>
      <radialGradient id="GradientRepeat"
            cx="0.5" cy="0.5" r="0.4" fx="0.75" fy="0.75"
            spreadMethod="repeat">
        <stop offset="0%" stop-color="red"/>
        <stop offset="100%" stop-color="blue"/>
      </radialGradient>
      <radialGradient id="GradientReflect"
            cx="0.5" cy="0.5" r="0.4" fx="0.75" fy="0.75"
            spreadMethod="reflect">
        <stop offset="0%" stop-color="red"/>
        <stop offset="100%" stop-color="blue"/>
      </radialGradient>
      <radialGradient id="Gradient" cx="260" cy="260" r="40" fx="235" fy="235" gradientUnits="userSpaceOnUse">
      //gradientUnits需要写绝对位置
        <stop offset="0" stop-color="yellow"></stop>
        <stop offset="100%" stop-color="skyblue"></stop>
      </radialGradient>
  </defs>

  <rect x="10" y="10" rx="15" ry="15" width="100" height="100" fill="url(#GradientPad)"/>
  <rect x="10" y="120" rx="15" ry="15" width="100" height="100" fill="url(#GradientRepeat)"/>
  <rect x="120" y="120" rx="15" ry="15" width="100" height="100" fill="url(#GradientReflect)"/>
  <rect x='200' y='200' rx='15' ry='15' width='100' height="100" fill='url(#Gradient)'></rect>

  <text x="15" y="30" fill="white" font-family="sans-serif" font-size="12pt">Pad</text>
  <text x="15" y="140" fill="white" font-family="sans-serif" font-size="12pt">Repeat</text>
  <text x="125" y="140" fill="white" font-family="sans-serif" font-size="12pt">Reflect</text> -->
  <!-- <defs>
    <linearGradient id="Gradient1">
      <stop offset="5%" stop-color="white"/>
      <stop offset="95%" stop-color="blue"/>
    </linearGradient>
    <linearGradient id="Gradient2" x1="0" x2="0" y1="0" y2="1">
      <stop offset="5%" stop-color="red"/>
      <stop offset="95%" stop-color="orange"/>
    </linearGradient>

    <!-- <pattern id="Pattern" x="0" y="0" width=".25" height=".25">
      <rect x="0" y="0" width="50" height="50" fill="skyblue"/>
      <rect x="0" y="0" width="25" height="25" fill="url(#Gradient2)"/>
      <circle cx="25" cy="25" r="20" fill="url(#Gradient1)" fill-opacity="0.5"/>
    </pattern> -->
    <!-- <pattern id="Pattern" width=".25" height=".25" patternContentUnits="objectBoundingBox">
   <rect x="0" y="0" width=".25" height=".25" fill="skyblue"/>
   <rect x="0" y="0" width=".125" height=".125" fill="url(#Gradient2)"/>
   <circle cx=".125" cy=".125" r=".1" fill="url(#Gradient1)" fill-opacity="0.5"/>
 </pattern> --> 
  <!-- </defs>
  <rect fill="url(#Pattern)" stroke="black" x="0" y="0" width="200" height="200"/> -->
</svg>